name D:\school\WTK\thesis\model\3dpredictsim\Results\batch_windlass\Pog_s1_tmt_aCst_d00_k1000_WL30_ig24_act_TTC.mot
datacolumns 128
datarows 4
range 0.00000000 0.03645639
endheader
time	pelvis_tilt	pelvis_list	pelvis_rotation	pelvis_tx	pelvis_ty	pelvis_tz	hip_flexion_l	hip_adduction_l	hip_rotation_l	hip_flexion_r	hip_adduction_r	hip_rotation_r	knee_angle_l	knee_angle_r	ankle_angle_l	ankle_angle_r	subtalar_angle_l	subtalar_angle_r	tmt_angle_l	tmt_angle_r	mtp_angle_l	mtp_angle_r	lumbar_extension	lumbar_bending	lumbar_rotation	arm_flex_l	arm_add_l	arm_rot_l	arm_flex_r	arm_add_r	arm_rot_r	elbow_flex_l	elbow_flex_r	pro_sup_l	pro_sup_r	glut_med1_l/activation	glut_med2_l/activation	glut_med3_l/activation	glut_min1_l/activation	glut_min2_l/activation	glut_min3_l/activation	semimem_l/activation	semiten_l/activation	bifemlh_l/activation	bifemsh_l/activation	sar_l/activation	add_long_l/activation	add_brev_l/activation	add_mag1_l/activation	add_mag2_l/activation	add_mag3_l/activation	tfl_l/activation	pect_l/activation	grac_l/activation	glut_max1_l/activation	glut_max2_l/activation	glut_max3_l/activation	iliacus_l/activation	psoas_l/activation	quad_fem_l/activation	gem_l/activation	peri_l/activation	rect_fem_l/activation	vas_med_l/activation	vas_int_l/activation	vas_lat_l/activation	med_gas_l/activation	lat_gas_l/activation	soleus_l/activation	tib_post_l/activation	flex_dig_l/activation	flex_hal_l/activation	tib_ant_l/activation	per_brev_l/activation	per_long_l/activation	per_tert_l/activation	ext_dig_l/activation	ext_hal_l/activation	ercspn_l/activation	intobl_l/activation	extobl_l/activation	glut_med1_r/activation	glut_med2_r/activation	glut_med3_r/activation	glut_min1_r/activation	glut_min2_r/activation	glut_min3_r/activation	semimem_r/activation	semiten_r/activation	bifemlh_r/activation	bifemsh_r/activation	sar_r/activation	add_long_r/activation	add_brev_r/activation	add_mag1_r/activation	add_mag2_r/activation	add_mag3_r/activation	tfl_r/activation	pect_r/activation	grac_r/activation	glut_max1_r/activation	glut_max2_r/activation	glut_max3_r/activation	iliacus_r/activation	psoas_r/activation	quad_fem_r/activation	gem_r/activation	peri_r/activation	rect_fem_r/activation	vas_med_r/activation	vas_int_r/activation	vas_lat_r/activation	med_gas_r/activation	lat_gas_r/activation	soleus_r/activation	tib_post_r/activation	flex_dig_r/activation	flex_hal_r/activation	tib_ant_r/activation	per_brev_r/activation	per_long_r/activation	per_tert_r/activation	ext_dig_r/activation	ext_hal_r/activation	ercspn_r/activation	intobl_r/activation	extobl_r/activation	
          0.00000000	         -2.92540394	         -0.19257247	          9.09287771	          0.00000000	          0.85615161	         -0.00281421	        -17.39748272	         -2.34710022	          8.33476147	         33.09362229	         -1.69545570	         -3.38229299	        -14.73751003	        -19.22952038	         -9.33114764	          2.20271345	         17.96938601	          9.21810796	        -11.58000572	         -0.78917847	         36.38507689	          2.23124885	          0.94262662	         -2.49889033	         -2.93589620	          2.54253829	        -13.52312014	         15.74402517	        -14.89659528	        -13.57167235	         11.23141502	         42.24601819	         19.21205162	         86.51662706	         86.51662706	          0.14440616	          0.06572252	          0.05000014	          0.18302494	          0.12112411	          0.08693756	          0.05000313	          0.05000029	          0.05000028	          0.05000016	          0.08693392	          0.14559998	          0.11026791	          0.05000116	          0.05001956	          0.05001322	          0.15599093	          0.05000502	          0.05000093	          0.05000928	          0.05000913	          0.05002534	          0.30829457	          0.47676450	          0.05000048	          0.05000079	          0.05000013	          0.13833144	          0.10446249	          0.11389148	          0.09649323	          0.14213040	          0.19145947	          0.05000001	          0.13255526	          0.13322897	          0.14668490	          0.26823953	          0.46910527	          0.34556638	          0.62710730	          0.45605757	          0.22064651	          0.05000000	          0.05002452	          0.07612569	          0.06012649	          0.05000120	          0.07344452	          0.05000307	          0.05000171	          0.05000244	          0.10275447	          0.07230341	          0.10796249	          0.06969053	          0.05000026	          0.10455893	          0.11656739	          0.16118941	          0.13637389	          0.08536453	          0.05000032	          0.06012639	          0.08950679	          0.05000133	          0.05000405	          0.10774327	          0.07697772	          0.06912857	          0.22192765	          0.07006700	          0.09478765	          0.05000005	          0.08899870	          0.09644551	          0.08902199	          0.06012680	          0.06012681	          0.06012677	          0.05598732	          0.06012668	          0.06012681	          0.52312147	          0.23831831	          0.14852046	          0.05000077	          0.51951791	          0.05000014	          0.05000004	          0.12573558	          0.10875305	
          0.01215213	         -2.91222318	         -0.13903161	          9.19527764	          0.01978269	          0.85475104	         -0.00246890	        -17.33482879	         -2.50648887	          8.11406468	         32.56482193	         -1.41252054	         -3.19494206	        -16.42335542	        -19.76921510	        -11.99161851	          1.79103882	         18.29691183	          8.86950812	        -11.72425393	         -0.88849677	         36.33019773	          2.52206639	          1.18243418	         -2.27121153	         -3.01793148	          2.13605606	        -13.59344738	         16.08715047	        -16.33055825	        -13.56425161	         11.37648093	         43.25896598	         19.16383246	         86.51662706	         86.51662706	          0.12008479	          0.05465346	          0.07230447	          0.15219932	          0.10072401	          0.07230323	          0.05836920	          0.05253168	          0.06012708	          0.05000224	          0.07229240	          0.18800419	          0.25493530	          0.30966396	          0.08364979	          0.11422521	          0.12971840	          0.05452012	          0.06030535	          0.05000165	          0.05000116	          0.05000176	          0.25637047	          0.39646609	          0.06160000	          0.07230420	          0.06318846	          0.11503315	          0.08686888	          0.10455773	          0.10448460	          0.11819227	          0.15921316	          0.05000001	          0.11022982	          0.11079010	          0.12197971	          0.41684047	          0.41554919	          0.31505405	          0.73632169	          0.55449445	          0.18348453	          0.05000388	          0.07230457	          0.07304544	          0.05000003	          0.05000016	          0.11297510	          0.05000008	          0.05000010	          0.05000027	          0.08544819	          0.06012589	          0.08977906	          0.06012676	          0.06013090	          0.08694884	          0.09693474	          0.27085618	          0.20157777	          0.08966891	          0.06012699	          0.05000125	          0.07443200	          0.06012572	          0.06012677	          0.11573417	          0.06401305	          0.07230463	          0.40951649	          0.08371491	          0.08797378	          0.07230466	          0.25619195	          0.24854034	          0.22400393	          0.05000002	          0.05000004	          0.05000000	          0.05000000	          0.05000019	          0.05000010	          0.66487371	          0.19818007	          0.12350618	          0.47517968	          0.57629516	          0.34091758	          0.05000000	          0.10455873	          0.09043646	
          0.02430426	         -2.89267973	         -0.10641970	          9.25615194	          0.03961810	          0.85284599	         -0.00214383	        -17.06561891	         -2.63980600	          7.89499932	         31.85805840	         -1.13434930	         -2.92891384	        -18.58776417	        -20.73592944	        -14.15644073	          1.60959484	         18.54645774	          8.47887062	        -11.22857697	         -1.02097675	         34.34250913	          2.63453947	          1.41679210	         -2.00479620	         -3.07871436	          1.68430451	        -13.67870311	         16.36619282	        -17.70379483	        -13.58241213	         11.65178083	         44.29042310	         19.03495977	         86.51662706	         86.51662706	          0.29828827	          0.06012674	          0.06012675	          0.12656556	          0.08375979	          0.06012626	          0.09499088	          0.05000022	          0.05000065	          0.05000007	          0.06011690	          0.15633988	          0.21200996	          0.25750928	          0.06956199	          0.09498723	          0.10787080	          0.05003246	          0.05014974	          0.06012563	          0.06012655	          0.06012668	          0.21319163	          0.35600219	          0.06012675	          0.06012668	          0.05254605	          0.09565884	          0.08694639	          0.08694808	          0.08688702	          0.09828589	          0.13239789	          0.05000003	          0.09166451	          0.09213047	          0.10143546	          0.34663472	          0.39261268	          0.28654745	          0.81811420	          0.75326681	          0.42398962	          0.09605527	          0.06012677	          0.06074287	          0.21472310	          0.31673281	          0.50996926	          0.27899112	          0.13396228	          0.41415820	          0.08530500	          0.05000006	          0.08766272	          0.05000004	          0.05000361	          0.07230481	          0.12594941	          0.22523767	          0.16762798	          0.13178227	          0.05000029	          0.06066452	          0.06189606	          0.05000008	          0.05000008	          0.16151906	          0.06012679	          0.06012684	          0.34054424	          0.12582937	          0.34621068	          0.06012685	          0.27338009	          0.26708312	          0.23972799	          0.05610092	          0.05652655	          0.06012676	          0.09143575	          0.05000119	          0.06010848	          0.59982412	          0.16480186	          0.10270482	          0.39514822	          0.58291267	          0.40298902	          0.05013529	          0.08694859	          0.07520482	
          0.03645639	         -2.87049189	         -0.08983156	          9.27251514	          0.05921793	          0.85082333	         -0.00179798	        -16.56756294	         -2.75192637	          7.68297222	         31.02918879	         -0.84141322	         -2.62855963	        -21.20060066	        -21.63448245	        -15.93370376	          1.52063756	         18.71030969	          8.04268061	        -10.11622540	         -0.96466218	         30.47139182	          2.62065892	          1.62926387	         -1.71477648	         -3.12386662	          1.24788294	        -13.76258727	         16.60432578	        -18.93433083	        -13.60527506	         12.05131786	         45.23791673	         18.76978881	         86.51662706	         86.51662706	          0.24804950	          0.05000005	          0.05000002	          0.10525653	          0.06965273	          0.05000008	          0.14094337	          0.05000017	          0.05000036	          0.05000009	          0.05000064	          0.19632462	          0.21807103	          0.27784226	          0.05784759	          0.08704632	          0.08970284	          0.05000135	          0.05000012	          0.05000051	          0.05000039	          0.05000029	          0.17728513	          0.33237240	          0.05000003	          0.05000018	          0.05000004	          0.07954763	          0.07230442	          0.07230445	          0.07230446	          0.08173222	          0.11009896	          0.05782634	          0.07622606	          0.07661358	          0.08435138	          0.46946433	          0.33335797	          0.23828632	          0.68032459	          0.62639883	          0.35257973	          0.14039075	          0.05000000	          0.05051234	          0.36024886	          0.48400149	          0.57081600	          0.23200310	          0.44930733	          0.41768417	          0.07093763	          0.07609186	          0.07289826	          0.07230273	          0.05000040	          0.06012699	          0.10473656	          0.18730242	          0.16524077	          0.15290331	          0.05000023	          0.05044732	          0.08201936	          0.29876117	          0.22113440	          0.19187768	          0.05000005	          0.05000008	          0.28318858	          0.10463685	          0.28790075	          0.05000008	          0.40803161	          0.39817910	          0.35144702	          0.05000000	          0.05000002	          0.05000000	          0.15212598	          0.05000157	          0.05000017	          0.73107747	          0.13704533	          0.08540690	          0.32886152	          0.48473649	          0.33511630	          0.06555712	          0.07230439	          0.06253855	
